<?xml version="1.0" encoding="iso-8859-1"?>
<!-- Generator: Adobe Illustrator 21.0.0, SVG Export Plug-In . SVG Version: 6.00 Build 0)  -->
<svg version="1.1" id="Capa_1" xmlns="http://www.w3.org/2000/svg" xmlns:xlink="http://www.w3.org/1999/xlink" x="0px" y="0px"
	 viewBox="0 0 260 260" style="enable-background:new 0 0 260 260;" xml:space="preserve">
<g>
	<g id="error_1_">
		<path style="fill:#FFEB99;" d="M255.667,4.333H4.333V39h251.333V4.333z M26,26h-8.667v-8.667H26V26z M47.667,26H39v-8.667h8.667
			V26z M69.333,26h-8.667v-8.667h8.667V26z"/>
		<path style="fill:#00D7DF;" d="M255.667,39H4.333v216.667h251.333V39z M99.667,91h60.667v69.333H99.667V91z M73.667,130
			L73.667,130H17.333l56.333-39V130L73.667,130z M229.667,130L229.667,130h-56.333l56.333-39V130L229.667,130z"/>
		<polygon style="fill:#00D7DF;" points="17.333,130 73.667,130 73.667,91 		"/>
		<polygon style="fill:#00D7DF;" points="173.333,130 229.667,130 229.667,91 		"/>
		<rect x="17.333" y="17.333" style="fill:#FFEB99;" width="8.667" height="8.667"/>
		<rect x="39" y="17.333" style="fill:#FFEB99;" width="8.667" height="8.667"/>
		<rect x="60.667" y="17.333" style="fill:#FFEB99;" width="8.667" height="8.667"/>
		<rect x="99.667" y="91" style="fill:#00D7DF;" width="60.667" height="69.333"/>
		<path style="fill:#231F20;" d="M255.667,0H4.333C1.94,0,0,1.94,0,4.333v251.333C0,258.06,1.94,260,4.333,260h251.333
			c2.393,0,4.333-1.94,4.333-4.333V4.333C260,1.94,258.06,0,255.667,0z M8.667,8.667h242.667v26H8.667V8.667z M251.333,251.333
			H8.667v-208h242.667V251.333z"/>
		<rect x="229.667" y="17.333" style="fill:#231F20;" width="17.333" height="8.667"/>
		<rect x="216.667" y="17.333" style="fill:#231F20;" width="8.667" height="8.667"/>
		<path style="fill:#231F20;" d="M17.333,134.333h52v30.333H78v-30.333h13v-8.667H78V91c-0.001-2.393-1.942-4.333-4.335-4.332
			c-0.881,0-1.74,0.269-2.464,0.77l-56.333,39c-1.967,1.363-2.457,4.063-1.094,6.03C14.583,133.636,15.913,134.333,17.333,134.333z
			 M69.333,99.272v26.394H31.2L69.333,99.272z"/>
		<path style="fill:#231F20;" d="M99.667,164.667h60.667c2.393,0,4.333-1.94,4.333-4.333V91c0-2.393-1.94-4.333-4.333-4.333H99.667
			c-2.393,0-4.333,1.94-4.333,4.333v69.333C95.333,162.727,97.273,164.667,99.667,164.667z M104,95.333h52V156h-52V95.333z"/>
		<path style="fill:#231F20;" d="M173.333,134.333h52v30.333H234v-30.333h13v-8.667h-13V91c-0.001-2.393-1.942-4.333-4.335-4.332
			c-0.881,0-1.74,0.269-2.464,0.77l-56.333,39c-1.967,1.363-2.457,4.063-1.094,6.03
			C170.583,133.636,171.913,134.333,173.333,134.333z M225.333,99.272v26.394H187.2L225.333,99.272z"/>
		<rect x="30.333" y="182" style="fill:#231F20;" width="60.667" height="8.667"/>
		<rect x="99.667" y="182" style="fill:#231F20;" width="26" height="8.667"/>
		<rect x="134.333" y="182" style="fill:#231F20;" width="43.333" height="8.667"/>
		<rect x="186.333" y="182" style="fill:#231F20;" width="52" height="8.667"/>
	</g>
</g>
<g>
</g>
<g>
</g>
<g>
</g>
<g>
</g>
<g>
</g>
<g>
</g>
<g>
</g>
<g>
</g>
<g>
</g>
<g>
</g>
<g>
</g>
<g>
</g>
<g>
</g>
<g>
</g>
<g>
</g>
</svg>
